<?xml version="1.0" encoding="UTF-8"?><svg id="Layer_2" xmlns="http://www.w3.org/2000/svg" viewBox="0 0 577.14 316.81"><defs><style>.cls-1{fill:#0c63ff;}</style></defs><g id="Layer_4"><path class="cls-1" d="M577.14,184.54c0-46.79-38.07-84.86-84.87-84.86h-97.39l30.12-60.19-49.19-24.61-69.96,139.8h186.42c15.6,0,28.43,12.01,29.76,27.26v34.68c-6.41-19.51-24.36-33.77-52.39-34.64h-172.43c.69-3.84,1.07-7.79,1.07-11.83v-14.26c0-17.89-6.96-34.72-19.63-47.4-12.54-12.53-29.2-19.5-46.93-19.62-.15,0-.3,0-.45,0-17.58,0-34.21,6.91-46.87,19.49-12.81,12.72-20.15,30.3-20.15,48.23v13.57c0,4.01.37,7.96,1.05,11.83h-16.96l-.18-38.2h-29.37c7.76-2.55,14.54-7.24,19.64-13.38,6.38-7.67,9.59-17.49,9.54-27.46h-80.97c-17.67,0-34.35,6.82-46.96,19.2C7.46,134.51.35,151.03.01,168.66c-.35,17.92,6.46,34.91,19.16,47.86,12.76,13,30.48,20.46,48.63,20.46h25.34c-1.04,5.99-3.87,11.51-8.24,15.93-5.69,5.74-13.27,8.9-21.35,8.9H0v55h63.55c22.88,0,44.34-8.95,60.43-25.21,14.67-14.81,23.22-34.02,24.45-54.62h78.1c1.57.11,3.14.18,4.73.18h.31c1.49,0,2.96-.08,4.42-.18h1.98s339.17,0,339.17,0v-52.44ZM67.8,181.98c-3.48,0-6.89-1.45-9.37-3.98-1.31-1.34-3.51-4.2-3.43-8.28.12-6.5,5.51-11.78,12.01-11.78h26.23l.11,24.04h-25.55ZM219.25,156.59c0-3.38,1.43-6.74,3.91-9.21,1.32-1.31,4.13-3.51,8.12-3.51h.07c4.29.03,7.11,2.22,8.4,3.5,1.32,1.32,3.53,4.18,3.53,8.52v14.26c0,5.93-4.34,10.87-10,11.83h-4.02c-3.19-.54-5.37-2.22-6.46-3.32-1.32-1.32-3.54-4.17-3.54-8.51v-13.57Z"/><circle class="cls-1" cx="231.27" cy="25.73" r="25.73"/></g></svg>